<?xml version="1.0" standalone="no"?>
<!DOCTYPE svg PUBLIC "-//W3C//DTD SVG 20010904//EN"
 "http://www.w3.org/TR/2001/REC-SVG-20010904/DTD/svg10.dtd">
<svg version="1.0" xmlns="http://www.w3.org/2000/svg"
 width="300.000000pt" height="100.000000pt" viewBox="0 0 300.000000 100.000000"
 preserveAspectRatio="xMidYMid meet">
<metadata>
Created by potrace 1.10, written by Peter Selinger 2001-2011
</metadata>
<g transform="translate(0.000000,100.000000) scale(0.050000,-0.050000)"
fill="#ff0000" stroke="none">
<path d="M1413 1744 c-17 -27 -553 -1564 -553 -1585 0 -11 126 -19 307 -19
l307 0 46 161 46 161 121 -6 121 -6 50 -155 50 -155 781 5 781 5 6 184 5 184
95 -60 c52 -33 141 -73 199 -90 l105 -31 0 -98 0 -99 280 0 280 0 0 99 0 98
105 31 c610 177 610 1053 0 1197 l-105 24 0 86 0 85 -280 0 -280 0 0 -90 c0
-76 -6 -90 -39 -90 -75 0 -255 -81 -338 -152 l-83 -71 0 191 0 192 -590 0
-590 0 0 -215 0 -214 170 -171 170 -171 -118 -129 c-65 -72 -123 -125 -129
-119 -7 6 -92 240 -190 520 l-178 509 -271 6 c-149 3 -276 -3 -281 -12z m2867
-202 l0 -78 105 -14 c631 -84 636 -888 6 -962 l-111 -14 0 -97 0 -97 -130 0
-130 0 0 100 c0 96 -2 100 -56 100 -644 0 -679 879 -39 969 91 13 95 16 95 79
0 87 8 92 143 92 l117 0 0 -78z m-2300 -282 c64 -181 166 -472 227 -645 l110
-315 -154 0 -155 0 -44 151 -45 150 -233 -5 -233 -6 -42 -140 -42 -140 -157
-6 c-144 -5 -156 -3 -143 30 8 20 102 288 211 596 108 308 206 585 218 616 22
56 22 56 194 50 l173 -6 115 -330z m1300 220 l0 -120 -285 0 -284 0 188 -189
187 -188 -78 -91 c-43 -49 -133 -151 -201 -226 l-122 -136 317 7 318 7 0 -122
0 -122 -470 0 -470 0 0 113 0 113 164 182 c90 100 182 203 204 228 l40 45
-204 205 -204 205 0 104 0 105 450 0 450 0 0 -120z m51 -334 c-21 -108 -16
-311 8 -374 34 -88 28 -92 -139 -92 -169 0 -186 10 -118 72 23 21 79 81 123
134 l81 97 -103 104 c-130 132 -130 133 29 133 l132 0 -13 -74z"/>
<path d="M3868 1200 c-184 -74 -184 -378 0 -462 153 -70 152 -72 152 222 l0
260 -55 -1 c-30 -1 -74 -9 -97 -19z"/>
<path d="M4280 960 l0 -264 75 13 c301 55 317 472 19 506 l-94 10 0 -265z"/>
<path d="M1614 1117 c-41 -136 -74 -254 -74 -262 0 -8 68 -15 150 -15 83 0
150 7 150 15 0 12 -75 264 -146 492 -3 10 -39 -94 -80 -230z"/>
</g>
</svg>
